<svg width="21.610336" height="21.076660" viewBox="0 0 21.6103 21.0767" fill="none" xmlns="http://www.w3.org/2000/svg" xmlns:xlink="http://www.w3.org/1999/xlink">
	<desc>
			Created with Pixso.
	</desc>
	<defs/>
	<path id="Vector" d="M10.8 0C4.83 0 0 4.83 0 10.8C0 15.57 3.09 19.62 7.38 21.05C7.93 21.15 8.12 20.82 8.12 20.53C8.12 20.28 8.11 19.6 8.11 18.7C5.1 19.35 4.47 17.25 4.47 17.25C3.98 16 3.27 15.67 3.27 15.67C2.29 14.99 3.34 15.01 3.34 15.01C4.43 15.09 5 16.12 5 16.12C5.96 17.77 7.53 17.3 8.14 17.02C8.24 16.32 8.52 15.85 8.83 15.58C6.43 15.3 3.91 14.38 3.91 10.24C3.91 9.06 4.33 8.09 5.02 7.34C4.91 7.06 4.53 5.96 5.12 4.48C5.12 4.48 6.03 4.19 8.1 5.58C8.98 5.34 9.89 5.22 10.8 5.22C11.71 5.22 12.62 5.34 13.5 5.58C15.57 4.19 16.47 4.48 16.47 4.48C17.06 5.96 16.69 7.06 16.58 7.34C17.27 8.09 17.69 9.06 17.69 10.24C17.69 14.39 15.17 15.3 12.76 15.57C13.14 15.9 13.49 16.56 13.49 17.57C13.49 19.01 13.48 20.18 13.48 20.53C13.48 20.82 13.67 21.16 14.22 21.05C18.51 19.62 21.61 15.57 21.61 10.8C21.61 4.83 16.77 0 10.8 0Z" fill="#D3E97A" fill-opacity="1.000000" fill-rule="evenodd"/>
</svg>
