<svg width="32.000000" height="32.000000" viewBox="0 0 32 32" fill="none" xmlns="http://www.w3.org/2000/svg" xmlns:xlink="http://www.w3.org/1999/xlink">
	<desc>
			Created with Pixso.
	</desc>
	<defs>
		<clipPath id="clip7_200">
			<rect id="bxl-instagram.svg" width="32.000000" height="32.000000" fill="white" fill-opacity="0"/>
		</clipPath>
	</defs>
	<rect id="bxl-instagram.svg" width="32.000000" height="32.000000" fill="#FFFFFF" fill-opacity="0"/>
	<g clip-path="url(#clip7_200)">
		<path id="Vector" d="M15.99 9.83C14.36 9.83 12.79 10.48 11.63 11.64C10.48 12.79 9.83 14.36 9.83 16C9.83 17.63 10.48 19.2 11.63 20.36C12.79 21.51 14.36 22.16 15.99 22.16C17.63 22.16 19.2 21.51 20.35 20.36C21.51 19.2 22.16 17.63 22.16 16C22.16 14.36 21.51 12.79 20.35 11.64C19.2 10.48 17.63 9.83 15.99 9.83ZM15.99 20C14.93 20 13.91 19.58 13.16 18.83C12.41 18.08 11.99 17.06 11.99 15.99C11.99 14.93 12.41 13.91 13.16 13.16C13.91 12.41 14.93 11.99 15.99 11.99C17.06 11.99 18.07 12.41 18.83 13.16C19.58 13.91 20 14.93 20 15.99C20 17.06 19.58 18.08 18.83 18.83C18.07 19.58 17.06 20 15.99 20Z" fill="#D3E97A" fill-opacity="1.000000" fill-rule="nonzero"/>
		<path id="Vector" d="M23.84 9.6C23.84 10.4 23.2 11.04 22.4 11.04C21.61 11.04 20.97 10.4 20.97 9.6C20.97 8.81 21.61 8.17 22.4 8.17C23.2 8.17 23.84 8.81 23.84 9.6Z" fill="#D3E97A" fill-opacity="1.000000" fill-rule="evenodd"/>
		<path id="Vector" d="M27.37 8.14C27.06 7.35 26.59 6.62 25.99 6.02C25.38 5.41 24.66 4.94 23.86 4.63C22.93 4.28 21.94 4.09 20.95 4.07C19.66 4.02 19.26 4 16 4C12.74 4 12.33 4 11.05 4.07C10.06 4.09 9.07 4.28 8.14 4.63C7.34 4.94 6.62 5.41 6.02 6.02C5.41 6.62 4.94 7.35 4.63 8.14C4.28 9.08 4.09 10.06 4.07 11.06C4.02 12.34 4 12.75 4 16C4 19.26 4 19.68 4.07 20.95C4.09 21.95 4.28 22.93 4.63 23.87C4.94 24.66 5.41 25.39 6.02 25.99C6.62 26.6 7.35 27.07 8.14 27.38C9.07 27.74 10.06 27.94 11.06 27.98C12.34 28.03 12.75 28.05 16 28.05C19.26 28.05 19.68 28.05 20.95 27.98C21.95 27.96 22.93 27.77 23.86 27.42C24.66 27.11 25.39 26.64 25.99 26.03C26.59 25.43 27.07 24.7 27.38 23.91C27.73 22.97 27.91 21.99 27.93 20.99C27.99 19.71 28.01 19.3 28.01 16.05C28.01 12.79 28.01 12.38 27.93 11.1C27.92 10.09 27.73 9.09 27.37 8.14ZM25.75 20.85C25.74 21.62 25.6 22.38 25.33 23.1C25.13 23.62 24.83 24.09 24.43 24.49C24.04 24.88 23.57 25.18 23.05 25.38C22.34 25.65 21.58 25.79 20.82 25.8C19.56 25.86 19.2 25.87 15.95 25.87C12.7 25.87 12.37 25.87 11.08 25.8C10.32 25.79 9.57 25.65 8.85 25.38C8.33 25.19 7.86 24.88 7.47 24.49C7.07 24.09 6.76 23.62 6.56 23.1C6.3 22.39 6.16 21.64 6.15 20.88C6.09 19.61 6.08 19.25 6.08 16.01C6.08 12.76 6.08 12.42 6.15 11.13C6.16 10.36 6.3 9.6 6.56 8.88C6.97 7.83 7.8 7 8.85 6.6C9.57 6.34 10.32 6.2 11.08 6.19C12.35 6.13 12.7 6.11 15.95 6.11C19.2 6.11 19.54 6.11 20.82 6.19C21.58 6.2 22.34 6.34 23.05 6.6C23.57 6.8 24.04 7.11 24.43 7.5C24.83 7.89 25.13 8.36 25.33 8.88C25.6 9.6 25.74 10.35 25.75 11.11C25.81 12.38 25.82 12.73 25.82 15.98C25.82 19.23 25.82 19.58 25.76 20.85L25.75 20.85L25.75 20.85Z" fill="#D3E97A" fill-opacity="1.000000" fill-rule="nonzero"/>
	</g>
</svg>
